<svg xmlns="http://www.w3.org/2000/svg" xmlns:xlink="http://www.w3.org/1999/xlink">
    <symbol id="github" fill-rule="evenodd" clip-rule="evenodd" stroke-linejoin="round" stroke-miterlimit="1.414" viewBox="0 0 16 16"><path d="M8 0C3.58 0 0 3.582 0 8c0 3.535 2.292 6.533 5.47 7.59.4.075.547-.172.547-.385 0-.19-.007-.693-.01-1.36-2.226.483-2.695-1.073-2.695-1.073-.364-.924-.89-1.17-.89-1.17-.725-.496.056-.486.056-.486.803.056 1.225.824 1.225.824.714 1.223 1.873.87 2.33.665.072-.517.278-.87.507-1.07-1.777-.2-3.644-.888-3.644-3.953 0-.873.31-1.587.823-2.147-.09-.202-.36-1.015.07-2.117 0 0 .67-.215 2.2.82.64-.178 1.32-.266 2-.27.68.004 1.36.092 2 .27 1.52-1.035 2.19-.82 2.19-.82.43 1.102.16 1.915.08 2.117.51.56.82 1.274.82 2.147 0 3.073-1.87 3.75-3.65 3.947.28.24.54.73.54 1.48 0 1.07-.01 1.93-.01 2.19 0 .21.14.46.55.38C13.71 14.53 16 11.53 16 8c0-4.418-3.582-8-8-8"/></symbol>
    <symbol id="mastodon" fill-rule="evenodd" clip-rule="evenodd" stroke-linejoin="round" stroke-miterlimit="1.414" viewBox="0 0 16 16"><path d="M15.195,5.352c0-3.347-2.193-4.328-2.193-4.328c-1.104-0.508-3.004-0.721-4.977-0.737H7.977 c-1.973,0.016-3.87,0.229-4.976,0.737c0,0-2.193,0.981-2.193,4.328c0,0.766-0.015,1.683,0.009,2.654c0.08,3.272,0.6,6.499,3.626,7.3 c1.396,0.369,2.594,0.446,3.559,0.394c1.75-0.097,2.732-0.624,2.732-0.624l-0.058-1.27c0,0-1.25,0.395-2.655,0.346 c-1.391-0.047-2.86-0.149-3.085-1.857c-0.021-0.15-0.031-0.312-0.031-0.479c0,0,1.365,0.334,3.096,0.413 c1.059,0.049,2.051-0.062,3.059-0.182c1.934-0.231,3.616-1.422,3.828-2.51C15.224,7.821,15.195,5.352,15.195,5.352z M12.609,9.664 h-1.606V5.73c0-0.83-0.349-1.25-1.047-1.25c-0.772,0-1.158,0.5-1.158,1.486V8.12H7.202V5.966c0-0.987-0.387-1.486-1.158-1.486 c-0.698,0-1.046,0.421-1.046,1.25v3.933H3.391V5.611c0-0.829,0.211-1.487,0.634-1.974c0.437-0.487,1.009-0.736,1.719-0.736 c0.822,0,1.444,0.315,1.855,0.947L8,4.519l0.4-0.67c0.412-0.632,1.033-0.947,1.855-0.947c0.71,0,1.282,0.25,1.72,0.736 c0.423,0.487,0.635,1.145,0.635,1.974V9.664z"/></symbol>
    <symbol id="linkedin" fill-rule="evenodd" clip-rule="evenodd" stroke-linejoin="round" stroke-miterlimit="1.414" viewBox="0 0 16 16"><path d="M13.632 13.635h-2.37V9.922c0-.886-.018-2.025-1.234-2.025-1.235 0-1.424.964-1.424 1.96v3.778h-2.37V6H8.51v1.04h.03c.318-.6 1.092-1.233 2.247-1.233 2.4 0 2.845 1.58 2.845 3.637v4.188zM3.558 4.955c-.762 0-1.376-.617-1.376-1.377 0-.758.614-1.375 1.376-1.375.76 0 1.376.617 1.376 1.375 0 .76-.617 1.377-1.376 1.377zm1.188 8.68H2.37V6h2.376v7.635zM14.816 0H1.18C.528 0 0 .516 0 1.153v13.694C0 15.484.528 16 1.18 16h13.635c.652 0 1.185-.516 1.185-1.153V1.153C16 .516 15.467 0 14.815 0z"/></symbol>
    <symbol id="rss" fill-rule="evenodd" clip-rule="evenodd" stroke-linejoin="round" stroke-miterlimit="1.414" viewBox="0 0 16 16"><path d="M12.8 16C12.8 8.978 7.022 3.2 0 3.2V0c8.777 0 16 7.223 16 16h-3.2zM2.194 11.61c1.21 0 2.195.985 2.195 2.196 0 1.21-.99 2.194-2.2 2.194C.98 16 0 15.017 0 13.806c0-1.21.983-2.195 2.194-2.195zM10.606 16h-3.11c0-4.113-3.383-7.497-7.496-7.497v-3.11c5.818 0 10.606 4.79 10.606 10.607z"/></symbol>
    <symbol id="gmail" fill-rule="evenodd" clip-rule="evenodd" stroke-linejoin="round" stroke-miterlimit="1.414" viewBox="0 0 16 16"><path d="M 14.855414,13.67271 H 1.2148107 c -0.62647608,0 -1.13494923,-0.508473 -1.13494923,-1.13495 V 3.5377198 c 0,-0.6264761 0.50847315,-1.1349492 1.13494923,-1.1349492 H 14.855414 c 0.626476,0 1.134949,0.5084731 1.134949,1.1349492 V 12.53776 c 0,0.626477 -0.508473,1.13495 -1.134949,1.13495 z M 8.035113,9.6380718 1.8419497,5.3402472 1.828691,13.009772 H 14.215017 V 5.3402472 Z M 13.914706,3.0657082 H 2.1217093 L 8.035113,7.1951467 c 0,0 4.144686,-2.9209032 5.879593,-4.1294385 z" /></symbol>
    <symbol id="facebook" fill-rule="evenodd" clip-rule="evenodd" stroke-linejoin="round" stroke-miterlimit="1.414" viewBox="0 0 16 16"><path d="M 7.9905882,0 C 3.5777859,0 0,3.5777859 0,7.9905882 c 0,4.4128028 3.5777859,7.9905878 7.9905882,7.9905878 4.4128028,0 7.9905878,-3.577785 7.9905878,-7.9905878 C 15.981176,3.5777859 12.403391,0 7.9905882,0 Z M 9.9882353,5.3270588 H 9.0892941 c -0.3582447,0 -0.4328235,0.14716 -0.4328235,0.5180565 V 6.6588235 H 9.9882353 L 9.8490659,7.9905882 H 8.6564706 V 12.651765 H 6.6588235 V 7.9905882 H 5.3270588 V 6.6588235 H 6.6588235 V 5.1219671 c 0,-1.1779459 0.6199365,-1.7925553 2.0169577,-1.7925553 h 1.3124541 z" /></symbol>
    <symbol id="discord" fill-rule="evenodd" clip-rule="evenodd" stroke-linejoin="round" stroke-miterlimit="1.414" viewBox="0 0 16 16"><path d="M 7.9996185,0 C 3.5824958,0 0,3.5811625 0,7.9996185 c 0,4.4177895 3.5824958,7.9996185 7.9996185,7.9996185 4.4177895,0 7.9996185,-3.581829 7.9996185,-7.9996185 C 15.999237,3.5811625 12.417408,0 7.9996185,0 Z m 2.1652295,12.231417 -0.2473215,-0.863293 0.5973055,0.555308 0.56464,0.522641 1.003285,0.886624 V 4.9610967 c 0,-0.5319746 -0.429313,-0.9612875 -0.956621,-0.9612875 H 4.8731009 c -0.5273082,0 -0.956621,0.4293129 -0.956621,0.9612875 v 6.3090323 c 0,0.531975 0.4293128,0.961288 0.956621,0.961288 z M 9.3248883,10.094186 9.0169034,9.7162036 C 9.6282076,9.5435447 9.8615298,9.1608962 9.8615298,9.1608962 9.670206,9.2868902 9.4882142,9.3755524 9.3248883,9.4362166 9.0915662,9.5342098 8.867577,9.5995425 8.6482543,9.6368734 8.200276,9.720866 7.7896285,9.6975387 7.4396452,9.6322301 7.1736579,9.5808917 6.945002,9.5062331 6.7536779,9.4315703 6.6463497,9.389569 6.5296885,9.3382407 6.4130275,9.2729109 l -0.018666,-0.010669 -0.00466,-0.00202 -0.018666,-0.010669 -0.018666,-0.014 -0.1306604,-0.079329 c 0,0 0.2239893,0.3733156 0.8166277,0.550641 L 6.7256792,10.094179 C 5.6943951,10.061514 5.3024137,9.3848783 5.3024137,9.3848783 c 0,-1.5025947 0.671968,-2.7205366 0.671968,-2.7205366 0.671968,-0.5039689 1.3112708,-0.4899696 1.3112708,-0.4899696 l 0.046665,0.055998 C 6.4923573,6.473025 6.1050424,6.8416741 6.1050424,6.8416741 l 0.27532,-0.1353273 C 6.8796719,6.487024 7.2763196,6.4263602 7.4396452,6.4123608 l 0.079329,-0.00934 c 0.2846531,-0.037332 0.6066379,-0.046665 0.9426216,-0.00934 0.4433119,0.051331 0.9192901,0.1819913 1.4046002,0.4479787 0,0 -0.3686491,-0.3499833 -1.1619451,-0.5926384 l 0.065329,-0.074663 c 0,0 0.639303,-0.013999 1.3112701,0.4899766 0,0 0.671969,1.2179419 0.671969,2.7205373 0,0 -0.381982,0.651302 -1.4279317,0.7093 z M 8.858244,7.9149558 c -0.2659875,0 -0.4759772,0.2333227 -0.4759772,0.5179751 0,0.2846535 0.2146562,0.5179756 0.4759772,0.5179756 0.2659875,0 0.4759772,-0.2333221 0.4759772,-0.5179756 0,-0.2846524 -0.2099897,-0.5179751 -0.4759772,-0.5179751 z m -1.7032519,0 c -0.2659873,0 -0.4759773,0.2333227 -0.4759773,0.5179751 0,0.2846535 0.2146564,0.5179756 0.4759773,0.5179756 0.2659873,0 0.4759773,-0.2333221 0.4759773,-0.5179756 0.00466,-0.2846524 -0.20999,-0.5179751 -0.4759773,-0.5179751 z" /></symbol>
</svg>
