<svg xmlns="http://www.w3.org/2000/svg" xmlns:xlink="http://www.w3.org/1999/xlink">

<symbol id="chip" fill-rule="evenodd" viewBox="0 0 48 48">
<g id="g114"><g
       id="g4"><path
         d="M 3,6 C 1.346,6 0,4.654 0,3 0,1.346 1.346,0 3,0 4.654,0 6,1.346 6,3 6,4.654 4.654,6 3,6 Z M 3,2 C 2.449,2 2,2.449 2,3 2,3.551 2.449,4 3,4 3.551,4 4,3.551 4,3 4,2.449 3.551,2 3,2 Z"
         id="path2" /></g><g
       id="g8"><path
         d="m 3,21 c -1.654,0 -3,-1.346 -3,-3 0,-1.654 1.346,-3 3,-3 1.654,0 3,1.346 3,3 0,1.654 -1.346,3 -3,3 z m 0,-4 c -0.551,0 -1,0.449 -1,1 0,0.551 0.449,1 1,1 0.551,0 1,-0.449 1,-1 0,-0.551 -0.449,-1 -1,-1 z"
         id="path6" /></g><g
       id="g12"><path
         d="M 3,11 C 2.448,11 2,10.552 2,10 V 5 C 2,4.448 2.448,4 3,4 3.552,4 4,4.448 4,5 v 5 c 0,0.552 -0.448,1 -1,1 z"
         id="path10" /></g><g
       id="g16"><path
         d="m 3,36 c -1.654,0 -3,-1.346 -3,-3 0,-1.654 1.346,-3 3,-3 1.654,0 3,1.346 3,3 0,1.654 -1.346,3 -3,3 z m 0,-4 c -0.551,0 -1,0.448 -1,1 0,0.552 0.449,1 1,1 0.551,0 1,-0.448 1,-1 0,-0.552 -0.449,-1 -1,-1 z"
         id="path14" /></g><g
       id="g20"><path
         d="M 3,32 C 2.448,32 2,31.553 2,31 v -5 c 0,-0.553 0.448,-1 1,-1 0.552,0 1,0.447 1,1 v 5 c 0,0.553 -0.448,1 -1,1 z"
         id="path18" /></g><g
       id="g24"><path
         d="M 38,36 H 10 C 8.897,36 8,35.103 8,34 V 2 C 8,0.897 8.897,0 10,0 h 28 c 1.103,0 2,0.897 2,2 v 32 c 0,1.103 -0.897,2 -2,2 z M 10,2 V 34 H 38.001 L 38,2 Z"
         id="path22" /></g><g
       id="g28"><path
         d="M 9,19 H 5 C 4.448,19 4,18.552 4,18 4,17.448 4.448,17 5,17 h 4 c 0.552,0 1,0.448 1,1 0,0.552 -0.448,1 -1,1 z"
         id="path26" /></g><g
       id="g32"><path
         d="M 9,27 H 3 C 2.448,27 2,26.553 2,26 2,25.447 2.448,25 3,25 h 6 c 0.552,0 1,0.447 1,1 0,0.553 -0.448,1 -1,1 z"
         id="path30" /></g><g
       id="g36"><path
         d="M 9,11 H 3 C 2.448,11 2,10.552 2,10 2,9.448 2.448,9 3,9 h 6 c 0.552,0 1,0.448 1,1 0,0.552 -0.448,1 -1,1 z"
         id="path34" /></g><g
       id="g40"><path
         d="m 45,6 c -1.654,0 -3,-1.346 -3,-3 0,-1.654 1.346,-3 3,-3 1.654,0 3,1.346 3,3 0,1.654 -1.346,3 -3,3 z m 0,-4 c -0.551,0 -1,0.449 -1,1 0,0.551 0.449,1 1,1 0.551,0 1,-0.449 1,-1 0,-0.551 -0.449,-1 -1,-1 z"
         id="path38" /></g><g
       id="g44"><path
         d="m 45,21 c -1.654,0 -3,-1.346 -3,-3 0,-1.654 1.346,-3 3,-3 1.654,0 3,1.346 3,3 0,1.654 -1.346,3 -3,3 z m 0,-4 c -0.551,0 -1,0.449 -1,1 0,0.551 0.449,1 1,1 0.551,0 1,-0.449 1,-1 0,-0.551 -0.449,-1 -1,-1 z"
         id="path42" /></g><g
       id="g48"><path
         d="m 45,11 c -0.552,0 -1,-0.448 -1,-1 V 5 c 0,-0.552 0.448,-1 1,-1 0.552,0 1,0.448 1,1 v 5 c 0,0.552 -0.448,1 -1,1 z"
         id="path46" /></g><g
       id="g52"><path
         d="m 45,36 c -1.654,0 -3,-1.346 -3,-3 0,-1.654 1.346,-3 3,-3 1.654,0 3,1.346 3,3 0,1.654 -1.346,3 -3,3 z m 0,-4 c -0.551,0 -1,0.448 -1,1 0,0.552 0.449,1 1,1 0.551,0 1,-0.448 1,-1 0,-0.552 -0.449,-1 -1,-1 z"
         id="path50" /></g><g
       id="g56"><path
         d="m 45,32 c -0.552,0 -1,-0.447 -1,-1 v -5 c 0,-0.553 0.448,-1 1,-1 0.552,0 1,0.447 1,1 v 5 c 0,0.553 -0.448,1 -1,1 z"
         id="path54" /></g><g
       id="g60"><path
         d="m 43,19 h -4 c -0.552,0 -1,-0.448 -1,-1 0,-0.552 0.448,-1 1,-1 h 4 c 0.552,0 1,0.448 1,1 0,0.552 -0.448,1 -1,1 z"
         id="path58" /></g><g
       id="g64"><path
         d="m 45,27 h -6 c -0.552,0 -1,-0.447 -1,-1 0,-0.553 0.448,-1 1,-1 h 6 c 0.552,0 1,0.447 1,1 0,0.553 -0.448,1 -1,1 z"
         id="path62" /></g><g
       id="g68"><path
         d="m 45,11 h -6 c -0.552,0 -1,-0.448 -1,-1 0,-0.552 0.448,-1 1,-1 h 6 c 0.552,0 1,0.448 1,1 0,0.552 -0.448,1 -1,1 z"
         id="path66" /></g><g
       id="g72"><path
         d="M 29.999,48 H 18 c -0.552,0 -1,-0.447 -1,-1 0,-0.553 0.448,-1 1,-1 h 11.999 c 0.552,0 1,0.447 1,1 0,0.553 -0.448,1 -1,1 z"
         id="path70" /></g><g
       id="g76"><path
         d="M 29,48 H 19 V 34 h 10 z m -8,-2 h 6 V 36 h -6 z"
         id="path74" /></g><g
       id="g80"><path
         d="m 28,24 h -8 c -1.103,0 -2,-0.897 -2,-2 v -8 c 0,-1.103 0.897,-2 2,-2 h 8 c 1.103,0 2,0.897 2,2 v 8 c 0,1.103 -0.897,2 -2,2 z M 20,14 v 8 h 8.001 L 28,14 Z"
         id="path78" /></g><g
       id="g84"><path
         d="m 22,14 c -0.552,0 -1,-0.448 -1,-1 V 9 c 0,-0.552 0.448,-1 1,-1 0.552,0 1,0.448 1,1 v 4 c 0,0.552 -0.448,1 -1,1 z"
         id="path82" /></g><g
       id="g88"><path
         d="m 26,14 c -0.552,0 -1,-0.448 -1,-1 V 9 c 0,-0.552 0.448,-1 1,-1 0.552,0 1,0.448 1,1 v 4 c 0,0.552 -0.448,1 -1,1 z"
         id="path86" /></g><g
       id="g92"><path
         d="m 22,28 c -0.552,0 -1,-0.447 -1,-1 v -4 c 0,-0.552 0.448,-1 1,-1 0.552,0 1,0.448 1,1 v 4 c 0,0.553 -0.448,1 -1,1 z"
         id="path90" /></g><g
       id="g96"><path
         d="m 26,28 c -0.552,0 -1,-0.447 -1,-1 v -4 c 0,-0.552 0.448,-1 1,-1 0.552,0 1,0.448 1,1 v 4 c 0,0.553 -0.448,1 -1,1 z"
         id="path94" /></g><g
       id="g100"><path
         d="m 33,17 h -4 c -0.552,0 -1,-0.448 -1,-1 0,-0.552 0.448,-1 1,-1 h 4 c 0.552,0 1,0.448 1,1 0,0.552 -0.448,1 -1,1 z"
         id="path98" /></g><g
       id="g104"><path
         d="m 33,21 h -4 c -0.552,0 -1,-0.448 -1,-1 0,-0.552 0.448,-1 1,-1 h 4 c 0.552,0 1,0.448 1,1 0,0.552 -0.448,1 -1,1 z"
         id="path102" /></g><g
       id="g108"><path
         d="m 19,17 h -4 c -0.552,0 -1,-0.448 -1,-1 0,-0.552 0.448,-1 1,-1 h 4 c 0.552,0 1,0.448 1,1 0,0.552 -0.448,1 -1,1 z"
         id="path106" /></g><g
       id="g112"><path
         d="m 19,21 h -4 c -0.552,0 -1,-0.448 -1,-1 0,-0.552 0.448,-1 1,-1 h 4 c 0.552,0 1,0.448 1,1 0,0.552 -0.448,1 -1,1 z"
         id="path110" /></g></g><g
     id="g118"></g>
</symbol>

<symbol id="code" fill-rule="evenodd" viewBox="0 0 48 48">
    <g
    id="g98"><g
      id="g4"><path
        d="M 3,6 C 1.346,6 0,4.654 0,3 0,1.346 1.346,0 3,0 4.654,0 6,1.346 6,3 6,4.654 4.654,6 3,6 Z M 3,2 C 2.448,2 2,2.449 2,3 2,3.551 2.448,4 3,4 3.552,4 4,3.551 4,3 4,2.449 3.552,2 3,2 Z"
        id="path2" /></g><g
      id="g8"><path
        d="m 3,21 c -1.654,0 -3,-1.346 -3,-3 0,-1.654 1.346,-3 3,-3 1.654,0 3,1.346 3,3 0,1.654 -1.346,3 -3,3 z m 0,-4 c -0.552,0 -1,0.449 -1,1 0,0.551 0.448,1 1,1 0.552,0 1,-0.449 1,-1 0,-0.551 -0.448,-1 -1,-1 z"
        id="path6" /></g><g
      id="g12"><path
        d="M 3,11 C 2.447,11 2,10.552 2,10 V 5 C 2,4.448 2.447,4 3,4 3.553,4 4,4.448 4,5 v 5 c 0,0.552 -0.447,1 -1,1 z"
        id="path10" /></g><g
      id="g16"><path
        d="m 3,36 c -1.654,0 -3,-1.346 -3,-3 0,-1.654 1.346,-3 3,-3 1.654,0 3,1.346 3,3 0,1.654 -1.346,3 -3,3 z m 0,-4 c -0.552,0 -1,0.448 -1,1 0,0.552 0.448,1 1,1 0.552,0 1,-0.448 1,-1 0,-0.552 -0.448,-1 -1,-1 z"
        id="path14" /></g><g
      id="g20"><path
        d="M 3,32 C 2.447,32 2,31.553 2,31 v -5 c 0,-0.553 0.447,-1 1,-1 0.553,0 1,0.447 1,1 v 5 c 0,0.553 -0.447,1 -1,1 z"
        id="path18" /></g><g
      id="g24"><path
        d="M 38,36 H 10 C 8.897,36 8,35.103 8,34 V 2 C 8,0.897 8.897,0 10,0 h 28 c 1.103,0 2,0.897 2,2 v 32 c 0,1.103 -0.897,2 -2,2 z M 10,2 V 34 H 38.002 L 38,2 Z"
        id="path22" /></g><g
      id="g28"><path
        d="M 9,19 H 5 C 4.447,19 4,18.552 4,18 4,17.448 4.447,17 5,17 h 4 c 0.553,0 1,0.448 1,1 0,0.552 -0.447,1 -1,1 z"
        id="path26" /></g><g
      id="g32"><path
        d="M 9,27 H 3 C 2.447,27 2,26.553 2,26 2,25.447 2.447,25 3,25 h 6 c 0.553,0 1,0.447 1,1 0,0.553 -0.447,1 -1,1 z"
        id="path30" /></g><g
      id="g36"><path
        d="M 9,11 H 3 C 2.447,11 2,10.552 2,10 2,9.448 2.447,9 3,9 h 6 c 0.553,0 1,0.448 1,1 0,0.552 -0.447,1 -1,1 z"
        id="path34" /></g><g
      id="g40"><path
        d="m 45,6 c -1.654,0 -3,-1.346 -3,-3 0,-1.654 1.346,-3 3,-3 1.654,0 3,1.346 3,3 0,1.654 -1.346,3 -3,3 z m 0,-4 c -0.552,0 -1,0.449 -1,1 0,0.551 0.448,1 1,1 0.552,0 1,-0.449 1,-1 0,-0.551 -0.448,-1 -1,-1 z"
        id="path38" /></g><g
      id="g44"><path
        d="m 45,21 c -1.654,0 -3,-1.346 -3,-3 0,-1.654 1.346,-3 3,-3 1.654,0 3,1.346 3,3 0,1.654 -1.346,3 -3,3 z m 0,-4 c -0.552,0 -1,0.449 -1,1 0,0.551 0.448,1 1,1 0.552,0 1,-0.449 1,-1 0,-0.551 -0.448,-1 -1,-1 z"
        id="path42" /></g><g
      id="g48"><path
        d="m 45,11 c -0.553,0 -1,-0.448 -1,-1 V 5 c 0,-0.552 0.447,-1 1,-1 0.553,0 1,0.448 1,1 v 5 c 0,0.552 -0.447,1 -1,1 z"
        id="path46" /></g><g
      id="g52"><path
        d="m 45,36 c -1.654,0 -3,-1.346 -3,-3 0,-1.654 1.346,-3 3,-3 1.654,0 3,1.346 3,3 0,1.654 -1.346,3 -3,3 z m 0,-4 c -0.552,0 -1,0.448 -1,1 0,0.552 0.448,1 1,1 0.552,0 1,-0.448 1,-1 0,-0.552 -0.448,-1 -1,-1 z"
        id="path50" /></g><g
      id="g56"><path
        d="m 45,32 c -0.553,0 -1,-0.447 -1,-1 v -5 c 0,-0.553 0.447,-1 1,-1 0.553,0 1,0.447 1,1 v 5 c 0,0.553 -0.447,1 -1,1 z"
        id="path54" /></g><g
      id="g60"><path
        d="m 43,19 h -4 c -0.553,0 -1,-0.448 -1,-1 0,-0.552 0.447,-1 1,-1 h 4 c 0.553,0 1,0.448 1,1 0,0.552 -0.447,1 -1,1 z"
        id="path58" /></g><g
      id="g64"><path
        d="m 45,27 h -6 c -0.553,0 -1,-0.447 -1,-1 0,-0.553 0.447,-1 1,-1 h 6 c 0.553,0 1,0.447 1,1 0,0.553 -0.447,1 -1,1 z"
        id="path62" /></g><g
      id="g68"><path
        d="m 45,11 h -6 c -0.553,0 -1,-0.448 -1,-1 0,-0.552 0.447,-1 1,-1 h 6 c 0.553,0 1,0.448 1,1 0,0.552 -0.447,1 -1,1 z"
        id="path66" /></g><g
      id="g72"><path
        d="M 29.999,48 H 18 c -0.553,0 -1,-0.447 -1,-1 0,-0.553 0.447,-1 1,-1 h 11.999 c 0.553,0 1,0.447 1,1 0,0.553 -0.447,1 -1,1 z"
        id="path70" /></g><g
      id="g76"><path
        d="M 29,48 H 19 V 34 h 10 z m -8,-2 h 6 V 36 h -6 z"
        id="path74" /></g><g
      id="g80"><path
        d="m 13,19 c -0.256,0 -0.512,-0.098 -0.707,-0.293 -0.391,-0.391 -0.391,-1.023 0,-1.414 l 4,-4 c 0.391,-0.391 1.023,-0.391 1.414,0 0.391,0.391 0.391,1.023 0,1.414 l -4,4 C 13.512,18.902 13.256,19 13,19 Z"
        id="path78" /></g><g
      id="g84"><path
        d="m 17,23 c -0.256,0 -0.512,-0.098 -0.707,-0.293 l -4,-4 c -0.391,-0.391 -0.391,-1.023 0,-1.414 0.391,-0.391 1.023,-0.391 1.414,0 l 4,4 c 0.391,0.391 0.391,1.023 0,1.414 C 17.512,22.902 17.256,23 17,23 Z"
        id="path82" /></g><g
      id="g88"><path
        d="m 31,23 c -0.256,0 -0.512,-0.098 -0.707,-0.293 -0.391,-0.391 -0.391,-1.023 0,-1.414 l 4,-4 c 0.391,-0.391 1.023,-0.391 1.414,0 0.391,0.391 0.391,1.023 0,1.414 l -4,4 C 31.512,22.902 31.256,23 31,23 Z"
        id="path86" /></g><g
      id="g92"><path
        d="m 35,19 c -0.256,0 -0.512,-0.098 -0.707,-0.293 l -4,-4 c -0.391,-0.391 -0.391,-1.023 0,-1.414 0.391,-0.391 1.023,-0.391 1.414,0 l 4,4 c 0.391,0.391 0.391,1.023 0,1.414 C 35.512,18.902 35.256,19 35,19 Z"
        id="path90" /></g><g
      id="g96"><path
        d="M 20.999,23 C 20.79,23 20.58,22.935 20.4,22.8 19.958,22.469 19.868,21.842 20.2,21.4 l 6,-8 c 0.331,-0.441 0.959,-0.532 1.399,-0.2 0.442,0.331 0.532,0.958 0.2,1.4 l -6,8 c -0.195,0.262 -0.495,0.4 -0.8,0.4 z"
        id="path94" /></g></g><g
    id="g102"></g>
</symbol>

<symbol id="exclamation" fill-rule="evenodd" viewBox="0 0 48 48">
    <g
    id="g90"><g
      id="g4"><path
        d="M 3,6 C 1.346,6 0,4.654 0,3 0,1.346 1.346,0 3,0 4.654,0 6,1.346 6,3 6,4.654 4.654,6 3,6 Z M 3,2 C 2.449,2 2,2.448 2,3 2,3.552 2.449,4 3,4 3.551,4 4,3.552 4,3 4,2.448 3.551,2 3,2 Z"
        id="path2" /></g><g
      id="g8"><path
        d="m 3,21 c -1.654,0 -3,-1.346 -3,-3 0,-1.654 1.346,-3 3,-3 1.654,0 3,1.346 3,3 0,1.654 -1.346,3 -3,3 z m 0,-4 c -0.551,0 -1,0.448 -1,1 0,0.552 0.449,1 1,1 0.551,0 1,-0.448 1,-1 0,-0.552 -0.449,-1 -1,-1 z"
        id="path6" /></g><g
      id="g12"><path
        d="M 3,11 C 2.448,11 2,10.553 2,10 V 5 C 2,4.447 2.448,4 3,4 3.552,4 4,4.447 4,5 v 5 c 0,0.553 -0.448,1 -1,1 z"
        id="path10" /></g><g
      id="g16"><path
        d="m 3,36 c -1.654,0 -3,-1.346 -3,-3 0,-1.654 1.346,-3 3,-3 1.654,0 3,1.346 3,3 0,1.654 -1.346,3 -3,3 z m 0,-4 c -0.551,0 -1,0.448 -1,1 0,0.552 0.449,1 1,1 0.551,0 1,-0.448 1,-1 0,-0.552 -0.449,-1 -1,-1 z"
        id="path14" /></g><g
      id="g20"><path
        d="M 3,32 C 2.448,32 2,31.553 2,31 v -5 c 0,-0.553 0.448,-1 1,-1 0.552,0 1,0.447 1,1 v 5 c 0,0.553 -0.448,1 -1,1 z"
        id="path18" /></g><g
      id="g24"><path
        d="M 38,36 H 10 C 8.897,36 8,35.103 8,34 V 2 C 8,0.897 8.897,0 10,0 h 28 c 1.103,0 2,0.897 2,2 v 32 c 0,1.103 -0.897,2 -2,2 z M 10,2 V 34 H 38.002 L 38,2 Z"
        id="path22" /></g><g
      id="g28"><path
        d="M 9,19 H 5 C 4.448,19 4,18.553 4,18 4,17.447 4.448,17 5,17 h 4 c 0.552,0 1,0.447 1,1 0,0.553 -0.448,1 -1,1 z"
        id="path26" /></g><g
      id="g32"><path
        d="M 9,27 H 3 C 2.448,27 2,26.553 2,26 2,25.447 2.448,25 3,25 h 6 c 0.552,0 1,0.447 1,1 0,0.553 -0.448,1 -1,1 z"
        id="path30" /></g><g
      id="g36"><path
        d="M 9,11 H 3 C 2.448,11 2,10.553 2,10 2,9.447 2.448,9 3,9 h 6 c 0.552,0 1,0.447 1,1 0,0.553 -0.448,1 -1,1 z"
        id="path34" /></g><g
      id="g40"><path
        d="m 45,6 c -1.654,0 -3,-1.346 -3,-3 0,-1.654 1.346,-3 3,-3 1.654,0 3,1.346 3,3 0,1.654 -1.346,3 -3,3 z m 0,-4 c -0.552,0 -1,0.448 -1,1 0,0.552 0.448,1 1,1 0.552,0 1,-0.448 1,-1 0,-0.552 -0.448,-1 -1,-1 z"
        id="path38" /></g><g
      id="g44"><path
        d="m 45,21 c -1.654,0 -3,-1.346 -3,-3 0,-1.654 1.346,-3 3,-3 1.654,0 3,1.346 3,3 0,1.654 -1.346,3 -3,3 z m 0,-4 c -0.552,0 -1,0.448 -1,1 0,0.552 0.448,1 1,1 0.552,0 1,-0.448 1,-1 0,-0.552 -0.448,-1 -1,-1 z"
        id="path42" /></g><g
      id="g48"><path
        d="m 45,11 c -0.553,0 -1,-0.447 -1,-1 V 5 c 0,-0.553 0.447,-1 1,-1 0.553,0 1,0.447 1,1 v 5 c 0,0.553 -0.447,1 -1,1 z"
        id="path46" /></g><g
      id="g52"><path
        d="m 45,36 c -1.654,0 -3,-1.346 -3,-3 0,-1.654 1.346,-3 3,-3 1.654,0 3,1.346 3,3 0,1.654 -1.346,3 -3,3 z m 0,-4 c -0.552,0 -1,0.448 -1,1 0,0.552 0.448,1 1,1 0.552,0 1,-0.448 1,-1 0,-0.552 -0.448,-1 -1,-1 z"
        id="path50" /></g><g
      id="g56"><path
        d="m 45,32 c -0.553,0 -1,-0.447 -1,-1 v -5 c 0,-0.553 0.447,-1 1,-1 0.553,0 1,0.447 1,1 v 5 c 0,0.553 -0.447,1 -1,1 z"
        id="path54" /></g><g
      id="g60"><path
        d="m 43,19 h -4 c -0.553,0 -1,-0.447 -1,-1 0,-0.553 0.447,-1 1,-1 h 4 c 0.553,0 1,0.447 1,1 0,0.553 -0.447,1 -1,1 z"
        id="path58" /></g><g
      id="g64"><path
        d="m 45,27 h -6 c -0.553,0 -1,-0.447 -1,-1 0,-0.553 0.447,-1 1,-1 h 6 c 0.553,0 1,0.447 1,1 0,0.553 -0.447,1 -1,1 z"
        id="path62" /></g><g
      id="g68"><path
        d="m 45,11 h -6 c -0.553,0 -1,-0.447 -1,-1 0,-0.553 0.447,-1 1,-1 h 6 c 0.553,0 1,0.447 1,1 0,0.553 -0.447,1 -1,1 z"
        id="path66" /></g><g
      id="g72"><path
        d="M 29.999,48 H 18 c -0.552,0 -1,-0.447 -1,-1 0,-0.553 0.448,-1 1,-1 h 11.999 c 0.553,0 1,0.447 1,1 0,0.553 -0.447,1 -1,1 z"
        id="path70" /></g><g
      id="g76"><path
        d="M 29,48 H 19 V 34 h 10 z m -8,-2 h 6 V 36 h -6 z"
        id="path74" /></g><g
      id="g80"><path
        d="M 24,30 C 17.383,30 12,24.617 12,18 12,11.383 17.383,6 24,6 c 6.617,0 12,5.383 12,12 0,6.617 -5.383,12 -12,12 z M 24,8 c -5.514,0 -10,4.486 -10,10 0,5.514 4.486,10 10,10 5.514,0 10,-4.486 10,-10 C 34,12.486 29.514,8 24,8 Z"
        id="path78" /></g><g
      id="g84"><path
        d="m 24,20 c -0.552,0 -1,-0.447 -1,-1 v -6 c 0,-0.553 0.448,-1 1,-1 0.552,0 1,0.447 1,1 v 6 c 0,0.553 -0.448,1 -1,1 z"
        id="path82" /></g><g
      id="g88"><path
        d="M 24,24 C 23.73,24 23.48,23.899 23.29,23.71 23.1,23.52 23,23.27 23,23 c 0,-0.13 0.03,-0.26 0.08,-0.38 0.05,-0.13 0.12,-0.23 0.21,-0.33 0.38,-0.37 1.04,-0.37 1.42,0 0.09,0.1 0.16,0.21 0.21,0.33 0.06,0.12 0.08,0.25 0.08,0.38 0,0.27 -0.1,0.52 -0.29,0.71 C 24.52,23.899 24.27,24 24,24 Z"
        id="path86" /></g></g><g
    id="g94"></g>
</symbol>

<symbol id="gear" fill-rule="evenodd" viewBox="0 0 48 48">
    <g
    id="g86"><g
      id="g4"><path
        d="M 3,6 C 1.346,6 0,4.654 0,3 0,1.346 1.346,0 3,0 4.654,0 6,1.346 6,3 6,4.654 4.654,6 3,6 Z M 3,2 C 2.448,2 2,2.449 2,3 2,3.551 2.448,4 3,4 3.552,4 4,3.551 4,3 4,2.449 3.552,2 3,2 Z"
        id="path2" /></g><g
      id="g8"><path
        d="m 3,21 c -1.654,0 -3,-1.346 -3,-3 0,-1.654 1.346,-3 3,-3 1.654,0 3,1.346 3,3 0,1.654 -1.346,3 -3,3 z m 0,-4 c -0.552,0 -1,0.449 -1,1 0,0.551 0.448,1 1,1 0.552,0 1,-0.449 1,-1 0,-0.551 -0.448,-1 -1,-1 z"
        id="path6" /></g><g
      id="g12"><path
        d="M 3,11 C 2.447,11 2,10.552 2,10 V 5 C 2,4.448 2.447,4 3,4 3.553,4 4,4.448 4,5 v 5 c 0,0.552 -0.447,1 -1,1 z"
        id="path10" /></g><g
      id="g16"><path
        d="m 3,36 c -1.654,0 -3,-1.346 -3,-3 0,-1.654 1.346,-3 3,-3 1.654,0 3,1.346 3,3 0,1.654 -1.346,3 -3,3 z m 0,-4 c -0.552,0 -1,0.448 -1,1 0,0.552 0.448,1 1,1 0.552,0 1,-0.448 1,-1 0,-0.552 -0.448,-1 -1,-1 z"
        id="path14" /></g><g
      id="g20"><path
        d="M 3,32 C 2.447,32 2,31.553 2,31 v -5 c 0,-0.553 0.447,-1 1,-1 0.553,0 1,0.447 1,1 v 5 c 0,0.553 -0.447,1 -1,1 z"
        id="path18" /></g><g
      id="g24"><path
        d="M 38,36 H 10 C 8.897,36 8,35.103 8,34 V 2 C 8,0.897 8.897,0 10,0 h 28 c 1.103,0 2,0.897 2,2 v 32 c 0,1.103 -0.897,2 -2,2 z M 10,2 V 34 H 38.002 L 38,2 Z"
        id="path22" /></g><g
      id="g28"><path
        d="M 9,19 H 5 C 4.447,19 4,18.552 4,18 4,17.448 4.447,17 5,17 h 4 c 0.553,0 1,0.448 1,1 0,0.552 -0.447,1 -1,1 z"
        id="path26" /></g><g
      id="g32"><path
        d="M 9,27 H 3 C 2.447,27 2,26.553 2,26 2,25.447 2.447,25 3,25 h 6 c 0.553,0 1,0.447 1,1 0,0.553 -0.447,1 -1,1 z"
        id="path30" /></g><g
      id="g36"><path
        d="M 9,11 H 3 C 2.447,11 2,10.552 2,10 2,9.448 2.447,9 3,9 h 6 c 0.553,0 1,0.448 1,1 0,0.552 -0.447,1 -1,1 z"
        id="path34" /></g><g
      id="g40"><path
        d="m 45,6 c -1.654,0 -3,-1.346 -3,-3 0,-1.654 1.346,-3 3,-3 1.654,0 3,1.346 3,3 0,1.654 -1.346,3 -3,3 z m 0,-4 c -0.552,0 -1,0.449 -1,1 0,0.551 0.448,1 1,1 0.552,0 1,-0.449 1,-1 0,-0.551 -0.448,-1 -1,-1 z"
        id="path38" /></g><g
      id="g44"><path
        d="m 45,21 c -1.654,0 -3,-1.346 -3,-3 0,-1.654 1.346,-3 3,-3 1.654,0 3,1.346 3,3 0,1.654 -1.346,3 -3,3 z m 0,-4 c -0.552,0 -1,0.449 -1,1 0,0.551 0.448,1 1,1 0.552,0 1,-0.449 1,-1 0,-0.551 -0.448,-1 -1,-1 z"
        id="path42" /></g><g
      id="g48"><path
        d="m 45,11 c -0.553,0 -1,-0.448 -1,-1 V 5 c 0,-0.552 0.447,-1 1,-1 0.553,0 1,0.448 1,1 v 5 c 0,0.552 -0.447,1 -1,1 z"
        id="path46" /></g><g
      id="g52"><path
        d="m 45,36 c -1.654,0 -3,-1.346 -3,-3 0,-1.654 1.346,-3 3,-3 1.654,0 3,1.346 3,3 0,1.654 -1.346,3 -3,3 z m 0,-4 c -0.552,0 -1,0.448 -1,1 0,0.552 0.448,1 1,1 0.552,0 1,-0.448 1,-1 0,-0.552 -0.448,-1 -1,-1 z"
        id="path50" /></g><g
      id="g56"><path
        d="m 45,32 c -0.553,0 -1,-0.447 -1,-1 v -5 c 0,-0.553 0.447,-1 1,-1 0.553,0 1,0.447 1,1 v 5 c 0,0.553 -0.447,1 -1,1 z"
        id="path54" /></g><g
      id="g60"><path
        d="m 43,19 h -4 c -0.553,0 -1,-0.448 -1,-1 0,-0.552 0.447,-1 1,-1 h 4 c 0.553,0 1,0.448 1,1 0,0.552 -0.447,1 -1,1 z"
        id="path58" /></g><g
      id="g64"><path
        d="m 45,27 h -6 c -0.553,0 -1,-0.447 -1,-1 0,-0.553 0.447,-1 1,-1 h 6 c 0.553,0 1,0.447 1,1 0,0.553 -0.447,1 -1,1 z"
        id="path62" /></g><g
      id="g68"><path
        d="m 45,11 h -6 c -0.553,0 -1,-0.448 -1,-1 0,-0.552 0.447,-1 1,-1 h 6 c 0.553,0 1,0.448 1,1 0,0.552 -0.447,1 -1,1 z"
        id="path66" /></g><g
      id="g72"><path
        d="M 29.999,48 H 18 c -0.553,0 -1,-0.447 -1,-1 0,-0.553 0.447,-1 1,-1 h 11.999 c 0.553,0 1,0.447 1,1 0,0.553 -0.447,1 -1,1 z"
        id="path70" /></g><g
      id="g76"><path
        d="M 29,48 H 19 V 34 h 10 z m -8,-2 h 6 V 36 h -6 z"
        id="path74" /></g><g
      id="g80"><path
        d="m 25,28 h -2 c -1.103,0 -2,-0.897 -2,-2 v -0.586 l -0.138,-0.04 -0.396,0.404 c -0.781,0.777 -2.051,0.779 -2.83,0 l -1.414,-1.415 c -0.78,-0.78 -0.78,-2.048 0,-2.828 L 16.636,21.121 16.569,20.995 16,21 c -1.103,0 -2,-0.897 -2,-2 v -2 c 0,-1.103 0.897,-2 2,-2 l 0.593,-0.018 0.032,-0.082 -0.403,-0.436 c -0.78,-0.78 -0.78,-2.048 0,-2.828 l 1.414,-1.415 c 0.778,-0.779 2.047,-0.78 2.829,0 L 20.88,10.637 21.004,10.569 21,10 c 0,-1.103 0.897,-2 2,-2 h 2 c 1.103,0 2,0.897 2,2 v 0.586 l 0.138,0.04 0.396,-0.404 c 0.779,-0.78 2.047,-0.78 2.83,-10e-4 l 1.414,1.415 c 0.78,0.78 0.78,2.048 0,2.828 l -0.414,0.414 0.067,0.126 L 32,15 c 1.103,0 2,0.897 2,2 v 2 c 0,1.103 -0.897,2 -2,2 l -0.593,0.018 -0.032,0.082 0.403,0.436 c 0.78,0.78 0.78,2.048 0,2.828 l -1.414,1.415 c -0.779,0.777 -2.05,0.779 -2.829,0 L 27.12,25.364 26.996,25.432 27,26 c 0,1.103 -0.897,2 -2,2 z m -4.126,-4.626 c 0.272,0 0.549,0.053 0.813,0.163 C 22.493,23.866 23,24.599 23,25.414 V 26 h 2 v -0.586 c 0,-0.815 0.507,-1.548 1.29,-1.868 0.799,-0.332 1.673,-0.168 2.245,0.404 L 28.95,24.365 30.364,22.95 29.95,22.536 C 29.378,21.964 29.216,21.091 29.536,20.312 29.865,19.506 30.599,19 31.414,19 H 32 v -2 h -0.586 c -0.815,0 -1.549,-0.506 -1.868,-1.29 -0.33,-0.801 -0.168,-1.674 0.404,-2.246 l 0.414,-0.414 -1.414,-1.415 -0.414,0.414 c -0.575,0.573 -1.45,0.733 -2.224,0.414 C 25.507,12.134 25,11.401 25,10.586 V 10 h -2 v 0.586 c 0,0.815 -0.507,1.548 -1.29,1.868 -0.801,0.33 -1.674,0.168 -2.245,-0.404 l -0.415,-0.415 -1.414,1.415 0.414,0.414 c 0.572,0.572 0.734,1.445 0.414,2.224 C 18.135,16.494 17.401,17 16.586,17 H 16 v 2 h 0.586 c 0.815,0 1.549,0.506 1.868,1.29 0.33,0.801 0.168,1.674 -0.404,2.246 l -0.414,0.414 1.414,1.415 0.414,-0.414 c 0.378,-0.378 0.886,-0.577 1.41,-0.577 z"
        id="path78" /></g><g
      id="g84"><path
        d="m 24,22 c -2.206,0 -4,-1.794 -4,-4 0,-2.206 1.794,-4 4,-4 2.206,0 4,1.794 4,4 0,2.206 -1.794,4 -4,4 z m 0,-6 c -1.103,0 -2,0.897 -2,2 0,1.103 0.897,2 2,2 1.103,0 2,-0.897 2,-2 0,-1.103 -0.897,-2 -2,-2 z"
        id="path82" /></g></g><g
    id="g90"></g>
</symbol>

<symbol id="pencil" fill-rule="evenodd" viewBox="0 0 48 48">
    <g
    id="g94"><g
      id="g4"><path
        d="M 3,6 C 1.346,6 0,4.654 0,3 0,1.346 1.346,0 3,0 4.654,0 6,1.346 6,3 6,4.654 4.654,6 3,6 Z M 3,2 C 2.449,2 2,2.449 2,3 2,3.551 2.449,4 3,4 3.551,4 4,3.551 4,3 4,2.449 3.551,2 3,2 Z"
        id="path2" /></g><g
      id="g8"><path
        d="m 3,21 c -1.654,0 -3,-1.346 -3,-3 0,-1.654 1.346,-3 3,-3 1.654,0 3,1.346 3,3 0,1.654 -1.346,3 -3,3 z m 0,-4 c -0.551,0 -1,0.449 -1,1 0,0.551 0.449,1 1,1 0.551,0 1,-0.449 1,-1 0,-0.551 -0.449,-1 -1,-1 z"
        id="path6" /></g><g
      id="g12"><path
        d="M 3,11 C 2.448,11 2,10.552 2,10 V 5 C 2,4.448 2.448,4 3,4 3.552,4 4,4.448 4,5 v 5 c 0,0.552 -0.448,1 -1,1 z"
        id="path10" /></g><g
      id="g16"><path
        d="m 3,36 c -1.654,0 -3,-1.346 -3,-3 0,-1.654 1.346,-3 3,-3 1.654,0 3,1.346 3,3 0,1.654 -1.346,3 -3,3 z m 0,-4 c -0.551,0 -1,0.448 -1,1 0,0.552 0.449,1 1,1 0.551,0 1,-0.448 1,-1 0,-0.552 -0.449,-1 -1,-1 z"
        id="path14" /></g><g
      id="g20"><path
        d="M 3,32 C 2.448,32 2,31.553 2,31 v -5 c 0,-0.553 0.448,-1 1,-1 0.552,0 1,0.447 1,1 v 5 c 0,0.553 -0.448,1 -1,1 z"
        id="path18" /></g><g
      id="g24"><path
        d="M 38,36 H 10 C 8.897,36 8,35.103 8,34 V 2 C 8,0.897 8.897,0 10,0 h 28 c 1.103,0 2,0.897 2,2 v 32 c 0,1.103 -0.897,2 -2,2 z M 10,2 V 34 H 38.001 L 38,2 Z"
        id="path22" /></g><g
      id="g28"><path
        d="M 9,19 H 5 C 4.448,19 4,18.552 4,18 4,17.448 4.448,17 5,17 h 4 c 0.552,0 1,0.448 1,1 0,0.552 -0.448,1 -1,1 z"
        id="path26" /></g><g
      id="g32"><path
        d="M 9,27 H 3 C 2.448,27 2,26.553 2,26 2,25.447 2.448,25 3,25 h 6 c 0.552,0 1,0.447 1,1 0,0.553 -0.448,1 -1,1 z"
        id="path30" /></g><g
      id="g36"><path
        d="M 9,11 H 3 C 2.448,11 2,10.552 2,10 2,9.448 2.448,9 3,9 h 6 c 0.552,0 1,0.448 1,1 0,0.552 -0.448,1 -1,1 z"
        id="path34" /></g><g
      id="g40"><path
        d="m 45,6 c -1.654,0 -3,-1.346 -3,-3 0,-1.654 1.346,-3 3,-3 1.654,0 3,1.346 3,3 0,1.654 -1.346,3 -3,3 z m 0,-4 c -0.551,0 -1,0.449 -1,1 0,0.551 0.449,1 1,1 0.551,0 1,-0.449 1,-1 0,-0.551 -0.449,-1 -1,-1 z"
        id="path38" /></g><g
      id="g44"><path
        d="m 45,21 c -1.654,0 -3,-1.346 -3,-3 0,-1.654 1.346,-3 3,-3 1.654,0 3,1.346 3,3 0,1.654 -1.346,3 -3,3 z m 0,-4 c -0.551,0 -1,0.449 -1,1 0,0.551 0.449,1 1,1 0.551,0 1,-0.449 1,-1 0,-0.551 -0.449,-1 -1,-1 z"
        id="path42" /></g><g
      id="g48"><path
        d="m 45,11 c -0.552,0 -1,-0.448 -1,-1 V 5 c 0,-0.552 0.448,-1 1,-1 0.552,0 1,0.448 1,1 v 5 c 0,0.552 -0.448,1 -1,1 z"
        id="path46" /></g><g
      id="g52"><path
        d="m 45,36 c -1.654,0 -3,-1.346 -3,-3 0,-1.654 1.346,-3 3,-3 1.654,0 3,1.346 3,3 0,1.654 -1.346,3 -3,3 z m 0,-4 c -0.551,0 -1,0.448 -1,1 0,0.552 0.449,1 1,1 0.551,0 1,-0.448 1,-1 0,-0.552 -0.449,-1 -1,-1 z"
        id="path50" /></g><g
      id="g56"><path
        d="m 45,32 c -0.552,0 -1,-0.447 -1,-1 v -5 c 0,-0.553 0.448,-1 1,-1 0.552,0 1,0.447 1,1 v 5 c 0,0.553 -0.448,1 -1,1 z"
        id="path54" /></g><g
      id="g60"><path
        d="m 43,19 h -4 c -0.552,0 -1,-0.448 -1,-1 0,-0.552 0.448,-1 1,-1 h 4 c 0.552,0 1,0.448 1,1 0,0.552 -0.448,1 -1,1 z"
        id="path58" /></g><g
      id="g64"><path
        d="m 45,27 h -6 c -0.552,0 -1,-0.447 -1,-1 0,-0.553 0.448,-1 1,-1 h 6 c 0.552,0 1,0.447 1,1 0,0.553 -0.448,1 -1,1 z"
        id="path62" /></g><g
      id="g68"><path
        d="m 45,11 h -6 c -0.552,0 -1,-0.448 -1,-1 0,-0.552 0.448,-1 1,-1 h 6 c 0.552,0 1,0.448 1,1 0,0.552 -0.448,1 -1,1 z"
        id="path66" /></g><g
      id="g72"><path
        d="M 29.999,48 H 18 c -0.552,0 -1,-0.447 -1,-1 0,-0.553 0.448,-1 1,-1 h 11.999 c 0.552,0 1,0.447 1,1 0,0.553 -0.448,1 -1,1 z"
        id="path70" /></g><g
      id="g76"><path
        d="M 29,48 H 19 V 34 h 10 z m -8,-2 h 6 V 36 h -6 z"
        id="path74" /></g><g
      id="g80"><path
        d="m 14.023,29.945 c -0.537,0 -1.048,-0.209 -1.431,-0.593 -0.445,-0.444 -0.655,-1.06 -0.576,-1.689 l 0.027,-0.138 1.693,-6.227 c 0.094,-0.344 0.276,-0.657 0.527,-0.908 L 25.836,8.85 33.152,16.145 21.578,27.687 c -0.253,0.253 -0.569,0.436 -0.914,0.527 l -6.379,1.715 c -0.088,0.01 -0.175,0.016 -0.262,0.016 z m 0.137,-1.008 h 0.01 z m -0.156,-1 0.001,0.006 6.159,-1.671 10.156,-10.126 -4.483,-4.471 -10.16,10.13 z"
        id="path78" /></g><g
      id="g84"><path
        d="m 17.725,25.234 c -0.256,0 -0.513,-0.098 -0.708,-0.294 -0.39,-0.391 -0.389,-1.024 0.002,-1.414 l 11.062,-11.03 c 0.392,-0.391 1.024,-0.389 1.414,0.002 0.39,0.391 0.389,1.024 -0.002,1.414 l -11.062,11.03 c -0.196,0.195 -0.451,0.292 -0.706,0.292 z"
        id="path82" /></g><g
      id="g88"><path
        d="m 31.737,17.558 -7.316,-7.295 3.688,-3.678 c 0.781,-0.778 2.051,-0.777 2.831,0 l 4.481,4.469 c 0.379,0.377 0.587,0.88 0.588,1.414 0,0.535 -0.208,1.038 -0.588,1.416 z m -4.483,-7.295 4.483,4.47 2.271,-2.265 L 29.528,8 Z m 6.755,2.207 h 0.01 z"
        id="path86" /></g><g
      id="g92"><path
        d="m 20.674,28.176 c -0.255,0 -0.511,-0.098 -0.706,-0.292 l -5.9,-5.883 c -0.391,-0.39 -0.392,-1.023 -0.002,-1.414 0.39,-0.391 1.022,-0.393 1.414,-0.002 l 5.9,5.883 c 0.391,0.39 0.392,1.023 0.002,1.414 -0.195,0.196 -0.451,0.294 -0.708,0.294 z"
        id="path90" /></g></g><g
    id="g98"></g>
</symbol>

<symbol id="pin" fill-rule="evenodd" viewBox="0 0 48 48">
    <g
    id="g86"><g
      id="g4"><path
        d="M 3,6 C 1.346,6 0,4.654 0,3 0,1.346 1.346,0 3,0 4.654,0 6,1.346 6,3 6,4.654 4.654,6 3,6 Z M 3,2 C 2.449,2 2,2.448 2,3 2,3.552 2.449,4 3,4 3.551,4 4,3.552 4,3 4,2.448 3.551,2 3,2 Z"
        id="path2" /></g><g
      id="g8"><path
        d="m 3,21 c -1.654,0 -3,-1.346 -3,-3 0,-1.654 1.346,-3 3,-3 1.654,0 3,1.346 3,3 0,1.654 -1.346,3 -3,3 z m 0,-4 c -0.551,0 -1,0.448 -1,1 0,0.552 0.449,1 1,1 0.551,0 1,-0.448 1,-1 0,-0.552 -0.449,-1 -1,-1 z"
        id="path6" /></g><g
      id="g12"><path
        d="M 3,11 C 2.448,11 2,10.553 2,10 V 5 C 2,4.447 2.448,4 3,4 3.552,4 4,4.447 4,5 v 5 c 0,0.553 -0.448,1 -1,1 z"
        id="path10" /></g><g
      id="g16"><path
        d="m 3,36 c -1.654,0 -3,-1.346 -3,-3 0,-1.654 1.346,-3 3,-3 1.654,0 3,1.346 3,3 0,1.654 -1.346,3 -3,3 z m 0,-4 c -0.551,0 -1,0.448 -1,1 0,0.552 0.449,1 1,1 0.551,0 1,-0.448 1,-1 0,-0.552 -0.449,-1 -1,-1 z"
        id="path14" /></g><g
      id="g20"><path
        d="M 3,32 C 2.448,32 2,31.553 2,31 v -5 c 0,-0.553 0.448,-1 1,-1 0.552,0 1,0.447 1,1 v 5 c 0,0.553 -0.448,1 -1,1 z"
        id="path18" /></g><g
      id="g24"><path
        d="M 38,36 H 10 C 8.897,36 8,35.103 8,34 V 2 C 8,0.897 8.897,0 10,0 h 28 c 1.103,0 2,0.897 2,2 v 32 c 0,1.103 -0.897,2 -2,2 z M 10,2 V 34 H 38.001 L 38,2 Z"
        id="path22" /></g><g
      id="g28"><path
        d="M 9,19 H 5 C 4.448,19 4,18.553 4,18 4,17.447 4.448,17 5,17 h 4 c 0.552,0 1,0.447 1,1 0,0.553 -0.448,1 -1,1 z"
        id="path26" /></g><g
      id="g32"><path
        d="M 9,27 H 3 C 2.448,27 2,26.553 2,26 2,25.447 2.448,25 3,25 h 6 c 0.552,0 1,0.447 1,1 0,0.553 -0.448,1 -1,1 z"
        id="path30" /></g><g
      id="g36"><path
        d="M 9,11 H 3 C 2.448,11 2,10.553 2,10 2,9.447 2.448,9 3,9 h 6 c 0.552,0 1,0.447 1,1 0,0.553 -0.448,1 -1,1 z"
        id="path34" /></g><g
      id="g40"><path
        d="m 45,6 c -1.654,0 -3,-1.346 -3,-3 0,-1.654 1.346,-3 3,-3 1.654,0 3,1.346 3,3 0,1.654 -1.346,3 -3,3 z m 0,-4 c -0.551,0 -1,0.448 -1,1 0,0.552 0.449,1 1,1 0.551,0 1,-0.448 1,-1 0,-0.552 -0.449,-1 -1,-1 z"
        id="path38" /></g><g
      id="g44"><path
        d="m 45,21 c -1.654,0 -3,-1.346 -3,-3 0,-1.654 1.346,-3 3,-3 1.654,0 3,1.346 3,3 0,1.654 -1.346,3 -3,3 z m 0,-4 c -0.551,0 -1,0.448 -1,1 0,0.552 0.449,1 1,1 0.551,0 1,-0.448 1,-1 0,-0.552 -0.449,-1 -1,-1 z"
        id="path42" /></g><g
      id="g48"><path
        d="m 45,11 c -0.552,0 -1,-0.447 -1,-1 V 5 c 0,-0.553 0.448,-1 1,-1 0.552,0 1,0.447 1,1 v 5 c 0,0.553 -0.448,1 -1,1 z"
        id="path46" /></g><g
      id="g52"><path
        d="m 45,36 c -1.654,0 -3,-1.346 -3,-3 0,-1.654 1.346,-3 3,-3 1.654,0 3,1.346 3,3 0,1.654 -1.346,3 -3,3 z m 0,-4 c -0.551,0 -1,0.448 -1,1 0,0.552 0.449,1 1,1 0.551,0 1,-0.448 1,-1 0,-0.552 -0.449,-1 -1,-1 z"
        id="path50" /></g><g
      id="g56"><path
        d="m 45,32 c -0.552,0 -1,-0.447 -1,-1 v -5 c 0,-0.553 0.448,-1 1,-1 0.552,0 1,0.447 1,1 v 5 c 0,0.553 -0.448,1 -1,1 z"
        id="path54" /></g><g
      id="g60"><path
        d="m 43,19 h -4 c -0.552,0 -1,-0.447 -1,-1 0,-0.553 0.448,-1 1,-1 h 4 c 0.552,0 1,0.447 1,1 0,0.553 -0.448,1 -1,1 z"
        id="path58" /></g><g
      id="g64"><path
        d="m 45,27 h -6 c -0.552,0 -1,-0.447 -1,-1 0,-0.553 0.448,-1 1,-1 h 6 c 0.552,0 1,0.447 1,1 0,0.553 -0.448,1 -1,1 z"
        id="path62" /></g><g
      id="g68"><path
        d="m 45,11 h -6 c -0.552,0 -1,-0.447 -1,-1 0,-0.553 0.448,-1 1,-1 h 6 c 0.552,0 1,0.447 1,1 0,0.553 -0.448,1 -1,1 z"
        id="path66" /></g><g
      id="g72"><path
        d="M 29.999,48 H 18 c -0.552,0 -1,-0.447 -1,-1 0,-0.553 0.448,-1 1,-1 h 11.999 c 0.552,0 1,0.447 1,1 0,0.553 -0.448,1 -1,1 z"
        id="path70" /></g><g
      id="g76"><path
        d="M 29,48 H 19 V 34 h 10 z m -8,-2 h 6 V 36 h -6 z"
        id="path74" /></g><g
      id="g80"><path
        d="m 24.192,21.298 c -0.494,0 -0.989,-0.188 -1.365,-0.563 v -10e-4 l -1.56,-1.561 c -0.365,-0.365 -0.566,-0.851 -0.566,-1.365 0,-0.517 0.201,-1.001 0.566,-1.366 l 5.875,-5.876 c 0.753,-0.751 1.979,-0.751 2.73,-0.001 l 1.561,1.562 c 0.752,0.754 0.752,1.979 0,2.73 l -5.876,5.877 c -0.375,0.375 -0.87,0.564 -1.365,0.564 z m 0.045,-1.983 0.004,0.003 C 24.24,19.317 24.238,19.316 24.237,19.315 Z m 4.223,-7.336 -5.779,5.877 1.51,1.416 5.83,-5.83 z"
        id="path78" /></g><g
      id="g84"><path
        d="m 17,26 c -0.256,0 -0.512,-0.098 -0.707,-0.293 -0.391,-0.391 -0.391,-1.023 0,-1.414 l 5.035,-5.035 c 0.391,-0.391 1.023,-0.391 1.414,0 0.391,0.391 0.391,1.023 0,1.414 l -5.035,5.035 C 17.512,25.902 17.256,26 17,26 Z"
        id="path82" /></g></g><g
    id="g90"></g>
</symbol>

<symbol id="question" fill-rule="evenodd" viewBox="0 0 48 48">
    <g
    id="g94"><g
      id="g4"><path
        d="M 3,6 C 1.346,6 0,4.654 0,3 0,1.346 1.346,0 3,0 4.654,0 6,1.346 6,3 6,4.654 4.654,6 3,6 Z M 3,2 C 2.448,2 2,2.448 2,3 2,3.552 2.448,4 3,4 3.552,4 4,3.552 4,3 4,2.448 3.552,2 3,2 Z"
        id="path2" /></g><g
      id="g8"><path
        d="m 3,21 c -1.654,0 -3,-1.346 -3,-3 0,-1.654 1.346,-3 3,-3 1.654,0 3,1.346 3,3 0,1.654 -1.346,3 -3,3 z m 0,-4 c -0.552,0 -1,0.448 -1,1 0,0.552 0.448,1 1,1 0.552,0 1,-0.448 1,-1 0,-0.552 -0.448,-1 -1,-1 z"
        id="path6" /></g><g
      id="g12"><path
        d="M 3,11 C 2.447,11 2,10.553 2,10 V 5 C 2,4.447 2.447,4 3,4 3.553,4 4,4.447 4,5 v 5 c 0,0.553 -0.447,1 -1,1 z"
        id="path10" /></g><g
      id="g16"><path
        d="m 3,36 c -1.654,0 -3,-1.346 -3,-3 0,-1.654 1.346,-3 3,-3 1.654,0 3,1.346 3,3 0,1.654 -1.346,3 -3,3 z m 0,-4 c -0.552,0 -1,0.448 -1,1 0,0.552 0.448,1 1,1 0.552,0 1,-0.448 1,-1 0,-0.552 -0.448,-1 -1,-1 z"
        id="path14" /></g><g
      id="g20"><path
        d="M 3,32 C 2.447,32 2,31.553 2,31 v -5 c 0,-0.553 0.447,-1 1,-1 0.553,0 1,0.447 1,1 v 5 c 0,0.553 -0.447,1 -1,1 z"
        id="path18" /></g><g
      id="g24"><path
        d="M 38,36 H 10 C 8.897,36 8,35.103 8,34 V 2 C 8,0.897 8.897,0 10,0 h 28 c 1.103,0 2,0.897 2,2 v 32 c 0,1.103 -0.897,2 -2,2 z M 10,2 V 34 H 38.002 L 38,2 Z"
        id="path22" /></g><g
      id="g28"><path
        d="M 9,19 H 5 C 4.447,19 4,18.553 4,18 4,17.447 4.447,17 5,17 h 4 c 0.553,0 1,0.447 1,1 0,0.553 -0.447,1 -1,1 z"
        id="path26" /></g><g
      id="g32"><path
        d="M 9,27 H 3 C 2.447,27 2,26.553 2,26 2,25.447 2.447,25 3,25 h 6 c 0.553,0 1,0.447 1,1 0,0.553 -0.447,1 -1,1 z"
        id="path30" /></g><g
      id="g36"><path
        d="M 9,11 H 3 C 2.447,11 2,10.553 2,10 2,9.447 2.447,9 3,9 h 6 c 0.553,0 1,0.447 1,1 0,0.553 -0.447,1 -1,1 z"
        id="path34" /></g><g
      id="g40"><path
        d="m 45,6 c -1.654,0 -3,-1.346 -3,-3 0,-1.654 1.346,-3 3,-3 1.654,0 3,1.346 3,3 0,1.654 -1.346,3 -3,3 z m 0,-4 c -0.552,0 -1,0.448 -1,1 0,0.552 0.448,1 1,1 0.552,0 1,-0.448 1,-1 0,-0.552 -0.448,-1 -1,-1 z"
        id="path38" /></g><g
      id="g44"><path
        d="m 45,21 c -1.654,0 -3,-1.346 -3,-3 0,-1.654 1.346,-3 3,-3 1.654,0 3,1.346 3,3 0,1.654 -1.346,3 -3,3 z m 0,-4 c -0.552,0 -1,0.448 -1,1 0,0.552 0.448,1 1,1 0.552,0 1,-0.448 1,-1 0,-0.552 -0.448,-1 -1,-1 z"
        id="path42" /></g><g
      id="g48"><path
        d="m 45,11 c -0.553,0 -1,-0.447 -1,-1 V 5 c 0,-0.553 0.447,-1 1,-1 0.553,0 1,0.447 1,1 v 5 c 0,0.553 -0.447,1 -1,1 z"
        id="path46" /></g><g
      id="g52"><path
        d="m 45,36 c -1.654,0 -3,-1.346 -3,-3 0,-1.654 1.346,-3 3,-3 1.654,0 3,1.346 3,3 0,1.654 -1.346,3 -3,3 z m 0,-4 c -0.552,0 -1,0.448 -1,1 0,0.552 0.448,1 1,1 0.552,0 1,-0.448 1,-1 0,-0.552 -0.448,-1 -1,-1 z"
        id="path50" /></g><g
      id="g56"><path
        d="m 45,32 c -0.553,0 -1,-0.447 -1,-1 v -5 c 0,-0.553 0.447,-1 1,-1 0.553,0 1,0.447 1,1 v 5 c 0,0.553 -0.447,1 -1,1 z"
        id="path54" /></g><g
      id="g60"><path
        d="m 43,19 h -4 c -0.553,0 -1,-0.447 -1,-1 0,-0.553 0.447,-1 1,-1 h 4 c 0.553,0 1,0.447 1,1 0,0.553 -0.447,1 -1,1 z"
        id="path58" /></g><g
      id="g64"><path
        d="m 45,27 h -6 c -0.553,0 -1,-0.447 -1,-1 0,-0.553 0.447,-1 1,-1 h 6 c 0.553,0 1,0.447 1,1 0,0.553 -0.447,1 -1,1 z"
        id="path62" /></g><g
      id="g68"><path
        d="m 45,11 h -6 c -0.553,0 -1,-0.447 -1,-1 0,-0.553 0.447,-1 1,-1 h 6 c 0.553,0 1,0.447 1,1 0,0.553 -0.447,1 -1,1 z"
        id="path66" /></g><g
      id="g72"><path
        d="M 29.999,48 H 18 c -0.553,0 -1,-0.447 -1,-1 0,-0.553 0.447,-1 1,-1 h 11.999 c 0.553,0 1,0.447 1,1 0,0.553 -0.447,1 -1,1 z"
        id="path70" /></g><g
      id="g76"><path
        d="M 29,48 H 19 V 34 h 10 z m -8,-2 h 6 V 36 h -6 z"
        id="path74" /></g><g
      id="g80"><path
        d="M 24,30 C 17.383,30 12,24.617 12,18 12,11.383 17.383,6 24,6 c 6.617,0 12,5.383 12,12 0,6.617 -5.383,12 -12,12 z M 24,8 c -5.514,0 -10,4.486 -10,10 0,5.514 4.486,10 10,10 5.514,0 10,-4.486 10,-10 C 34,12.486 29.514,8 24,8 Z"
        id="path78" /></g><g
      id="g84"><path
        d="m 24,20 c -0.553,0 -1,-0.447 -1,-1 v -2 c 0,-0.553 0.447,-1 1,-1 0.553,0 1,0.447 1,1 v 2 c 0,0.553 -0.447,1 -1,1 z"
        id="path82" /></g><g
      id="g88"><path
        d="M 24,24 C 23.87,24 23.74,23.97 23.62,23.92 23.5,23.87 23.39,23.8 23.29,23.71 23.1,23.52 23,23.27 23,23 c 0,-0.26 0.109,-0.521 0.29,-0.71 0.05,-0.04 0.1,-0.08 0.149,-0.12 0.061,-0.04 0.12,-0.07 0.181,-0.09 0.06,-0.03 0.12,-0.05 0.189,-0.061 0.12,-0.029 0.25,-0.029 0.38,0 0.07,0.011 0.13,0.03 0.19,0.061 0.06,0.02 0.12,0.05 0.17,0.09 0.06,0.04 0.11,0.08 0.15,0.12 0.1,0.1 0.17,0.2 0.22,0.33 C 24.97,22.74 25,22.87 25,23 25,23.27 24.899,23.52 24.7,23.71 24.52,23.899 24.27,24 24,24 Z"
        id="path86" /></g><g
      id="g92"><path
        d="m 24,18 c -0.553,0 -1,-0.447 -1,-1 0,-0.553 0.447,-1 1,-1 0.552,0 1,-0.448 1,-1 0,-0.552 -0.448,-1 -1,-1 -0.552,0 -1,0.448 -1,1 0,0.553 -0.447,1 -1,1 -0.553,0 -1,-0.447 -1,-1 0,-1.654 1.346,-3 3,-3 1.654,0 3,1.346 3,3 0,1.654 -1.346,3 -3,3 z"
        id="path90" /></g></g><g
    id="g98"></g>
</symbol>

<symbol id="screen" fill-rule="evenodd" viewBox="0 0 48 48">
    <g
    id="g102"><g
      id="g4"><path
        d="M 3,6 C 1.346,6 0,4.654 0,3 0,1.346 1.346,0 3,0 4.654,0 6,1.346 6,3 6,4.654 4.654,6 3,6 Z M 3,2 C 2.449,2 2,2.449 2,3 2,3.551 2.449,4 3,4 3.551,4 4,3.551 4,3 4,2.449 3.551,2 3,2 Z"
        id="path2" /></g><g
      id="g8"><path
        d="m 3,21 c -1.654,0 -3,-1.346 -3,-3 0,-1.654 1.346,-3 3,-3 1.654,0 3,1.346 3,3 0,1.654 -1.346,3 -3,3 z m 0,-4 c -0.551,0 -1,0.449 -1,1 0,0.551 0.449,1 1,1 0.551,0 1,-0.449 1,-1 0,-0.551 -0.449,-1 -1,-1 z"
        id="path6" /></g><g
      id="g12"><path
        d="M 3,11 C 2.448,11 2,10.552 2,10 V 5 C 2,4.448 2.448,4 3,4 3.552,4 4,4.448 4,5 v 5 c 0,0.552 -0.448,1 -1,1 z"
        id="path10" /></g><g
      id="g16"><path
        d="m 3,36 c -1.654,0 -3,-1.346 -3,-3 0,-1.654 1.346,-3 3,-3 1.654,0 3,1.346 3,3 0,1.654 -1.346,3 -3,3 z m 0,-4 c -0.551,0 -1,0.448 -1,1 0,0.552 0.449,1 1,1 0.551,0 1,-0.448 1,-1 0,-0.552 -0.449,-1 -1,-1 z"
        id="path14" /></g><g
      id="g20"><path
        d="M 3,32 C 2.448,32 2,31.553 2,31 v -5 c 0,-0.553 0.448,-1 1,-1 0.552,0 1,0.447 1,1 v 5 c 0,0.553 -0.448,1 -1,1 z"
        id="path18" /></g><g
      id="g24"><path
        d="M 38,36 H 10 C 8.897,36 8,35.103 8,34 V 2 C 8,0.897 8.897,0 10,0 h 28 c 1.103,0 2,0.897 2,2 v 32 c 0,1.103 -0.897,2 -2,2 z M 10,2 V 34 H 38.002 L 38,2 Z"
        id="path22" /></g><g
      id="g28"><path
        d="M 9,19 H 5 C 4.448,19 4,18.552 4,18 4,17.448 4.448,17 5,17 h 4 c 0.552,0 1,0.448 1,1 0,0.552 -0.448,1 -1,1 z"
        id="path26" /></g><g
      id="g32"><path
        d="M 9,27 H 3 C 2.448,27 2,26.553 2,26 2,25.447 2.448,25 3,25 h 6 c 0.552,0 1,0.447 1,1 0,0.553 -0.448,1 -1,1 z"
        id="path30" /></g><g
      id="g36"><path
        d="M 9,11 H 3 C 2.448,11 2,10.552 2,10 2,9.448 2.448,9 3,9 h 6 c 0.552,0 1,0.448 1,1 0,0.552 -0.448,1 -1,1 z"
        id="path34" /></g><g
      id="g40"><path
        d="m 45,6 c -1.654,0 -3,-1.346 -3,-3 0,-1.654 1.346,-3 3,-3 1.654,0 3,1.346 3,3 0,1.654 -1.346,3 -3,3 z m 0,-4 c -0.552,0 -1,0.449 -1,1 0,0.551 0.448,1 1,1 0.552,0 1,-0.449 1,-1 0,-0.551 -0.448,-1 -1,-1 z"
        id="path38" /></g><g
      id="g44"><path
        d="m 45,21 c -1.654,0 -3,-1.346 -3,-3 0,-1.654 1.346,-3 3,-3 1.654,0 3,1.346 3,3 0,1.654 -1.346,3 -3,3 z m 0,-4 c -0.552,0 -1,0.449 -1,1 0,0.551 0.448,1 1,1 0.552,0 1,-0.449 1,-1 0,-0.551 -0.448,-1 -1,-1 z"
        id="path42" /></g><g
      id="g48"><path
        d="m 45,11 c -0.553,0 -1,-0.448 -1,-1 V 5 c 0,-0.552 0.447,-1 1,-1 0.553,0 1,0.448 1,1 v 5 c 0,0.552 -0.447,1 -1,1 z"
        id="path46" /></g><g
      id="g52"><path
        d="m 45,36 c -1.654,0 -3,-1.346 -3,-3 0,-1.654 1.346,-3 3,-3 1.654,0 3,1.346 3,3 0,1.654 -1.346,3 -3,3 z m 0,-4 c -0.552,0 -1,0.448 -1,1 0,0.552 0.448,1 1,1 0.552,0 1,-0.448 1,-1 0,-0.552 -0.448,-1 -1,-1 z"
        id="path50" /></g><g
      id="g56"><path
        d="m 45,32 c -0.553,0 -1,-0.447 -1,-1 v -5 c 0,-0.553 0.447,-1 1,-1 0.553,0 1,0.447 1,1 v 5 c 0,0.553 -0.447,1 -1,1 z"
        id="path54" /></g><g
      id="g60"><path
        d="m 43,19 h -4 c -0.553,0 -1,-0.448 -1,-1 0,-0.552 0.447,-1 1,-1 h 4 c 0.553,0 1,0.448 1,1 0,0.552 -0.447,1 -1,1 z"
        id="path58" /></g><g
      id="g64"><path
        d="m 45,27 h -6 c -0.553,0 -1,-0.447 -1,-1 0,-0.553 0.447,-1 1,-1 h 6 c 0.553,0 1,0.447 1,1 0,0.553 -0.447,1 -1,1 z"
        id="path62" /></g><g
      id="g68"><path
        d="m 45,11 h -6 c -0.553,0 -1,-0.448 -1,-1 0,-0.552 0.447,-1 1,-1 h 6 c 0.553,0 1,0.448 1,1 0,0.552 -0.447,1 -1,1 z"
        id="path66" /></g><g
      id="g72"><path
        d="M 29.999,48 H 18 c -0.552,0 -1,-0.447 -1,-1 0,-0.553 0.448,-1 1,-1 h 11.999 c 0.553,0 1,0.447 1,1 0,0.553 -0.447,1 -1,1 z"
        id="path70" /></g><g
      id="g76"><path
        d="M 29,48 H 19 V 34 h 10 z m -8,-2 h 6 V 36 h -6 z"
        id="path74" /></g><g
      id="g80"><path
        d="M 34,6 C 33.74,6 33.479,5.89 33.29,5.71 33.109,5.52 33,5.27 33,5 33,4.87 33.02,4.74 33.08,4.62 33.13,4.5 33.2,4.39 33.29,4.29 c 0.37,-0.37 1.04,-0.37 1.42,0 0.09,0.1 0.16,0.21 0.21,0.33 C 34.97,4.74 35,4.87 35,5 35,5.27 34.89,5.52 34.71,5.71 34.52,5.89 34.26,6 34,6 Z"
        id="path78" /></g><g
      id="g84"><path
        d="M 30,6 C 29.87,6 29.74,5.98 29.62,5.92 29.49,5.87 29.39,5.8 29.29,5.71 29.109,5.52 29,5.26 29,5 29,4.74 29.109,4.48 29.29,4.29 29.39,4.2 29.5,4.13 29.62,4.08 29.8,4 30,3.98 30.2,4.02 c 0.06,0.01 0.119,0.03 0.18,0.06 0.06,0.02 0.12,0.05 0.18,0.09 0.05,0.04 0.101,0.08 0.15,0.12 C 30.89,4.48 31,4.74 31,5 31,5.26 30.89,5.52 30.71,5.71 30.52,5.89 30.26,6 30,6 Z"
        id="path82" /></g><g
      id="g88"><path
        d="M 26,6 C 25.939,6 25.87,5.99 25.8,5.98 25.74,5.97 25.68,5.95 25.62,5.92 25.56,5.9 25.5,5.87 25.439,5.83 25.389,5.79 25.339,5.75 25.29,5.71 25.109,5.52 25,5.27 25,5 25,4.87 25.03,4.74 25.08,4.62 25.13,4.49 25.2,4.39 25.29,4.29 25.34,4.25 25.39,4.21 25.439,4.17 25.5,4.13 25.56,4.1 25.62,4.08 25.68,4.05 25.74,4.03 25.8,4.02 26.13,3.96 26.48,4.06 26.71,4.29 26.89,4.48 27,4.74 27,5 27,5.26 26.89,5.52 26.71,5.71 26.52,5.89 26.26,6 26,6 Z"
        id="path86" /></g><g
      id="g92"><path
        d="M 34,24 H 14 c -1.103,0 -2,-0.897 -2,-2 V 10 c 0,-1.103 0.897,-2 2,-2 h 20 c 1.103,0 2,0.897 2,2 v 12 c 0,1.103 -0.897,2 -2,2 z M 14,10 V 22 H 34.001 L 34,10 Z"
        id="path90" /></g><g
      id="g96"><path
        d="M 35,32 H 13 c -0.552,0 -1,-0.447 -1,-1 0,-0.553 0.448,-1 1,-1 h 22 c 0.553,0 1,0.447 1,1 0,0.553 -0.447,1 -1,1 z"
        id="path94" /></g><g
      id="g100"><path
        d="M 35,28 H 13 c -0.552,0 -1,-0.447 -1,-1 0,-0.553 0.448,-1 1,-1 h 22 c 0.553,0 1,0.447 1,1 0,0.553 -0.447,1 -1,1 z"
        id="path98" /></g></g><g
    id="g106"></g>
</symbol>

<symbol id="spanner" fill-rule="evenodd" viewBox="0 0 48 48">
    <g
    id="g90"><g
      id="g4"><path
        d="M 3,6 C 1.346,6 0,4.654 0,3 0,1.346 1.346,0 3,0 4.654,0 6,1.346 6,3 6,4.654 4.654,6 3,6 Z M 3,2 C 2.449,2 2,2.448 2,3 2,3.552 2.449,4 3,4 3.551,4 4,3.552 4,3 4,2.448 3.551,2 3,2 Z"
        id="path2" /></g><g
      id="g8"><path
        d="m 3,21 c -1.654,0 -3,-1.346 -3,-3 0,-1.654 1.346,-3 3,-3 1.654,0 3,1.346 3,3 0,1.654 -1.346,3 -3,3 z m 0,-4 c -0.551,0 -1,0.448 -1,1 0,0.552 0.449,1 1,1 0.551,0 1,-0.448 1,-1 0,-0.552 -0.449,-1 -1,-1 z"
        id="path6" /></g><g
      id="g12"><path
        d="M 3,11 C 2.448,11 2,10.553 2,10 V 5 C 2,4.447 2.448,4 3,4 3.552,4 4,4.447 4,5 v 5 c 0,0.553 -0.448,1 -1,1 z"
        id="path10" /></g><g
      id="g16"><path
        d="m 3,36 c -1.654,0 -3,-1.346 -3,-3 0,-1.654 1.346,-3 3,-3 1.654,0 3,1.346 3,3 0,1.654 -1.346,3 -3,3 z m 0,-4 c -0.551,0 -1,0.448 -1,1 0,0.552 0.449,1 1,1 0.551,0 1,-0.448 1,-1 0,-0.552 -0.449,-1 -1,-1 z"
        id="path14" /></g><g
      id="g20"><path
        d="M 3,32 C 2.448,32 2,31.553 2,31 v -5 c 0,-0.553 0.448,-1 1,-1 0.552,0 1,0.447 1,1 v 5 c 0,0.553 -0.448,1 -1,1 z"
        id="path18" /></g><g
      id="g24"><path
        d="M 38,36 H 10 C 8.897,36 8,35.103 8,34 V 2 C 8,0.897 8.897,0 10,0 h 28 c 1.103,0 2,0.897 2,2 v 32 c 0,1.103 -0.897,2 -2,2 z M 10,2 V 34 H 38.001 L 38,2 Z"
        id="path22" /></g><g
      id="g28"><path
        d="M 9,19 H 5 C 4.448,19 4,18.553 4,18 4,17.447 4.448,17 5,17 h 4 c 0.552,0 1,0.447 1,1 0,0.553 -0.448,1 -1,1 z"
        id="path26" /></g><g
      id="g32"><path
        d="M 9,27 H 3 C 2.448,27 2,26.553 2,26 2,25.447 2.448,25 3,25 h 6 c 0.552,0 1,0.447 1,1 0,0.553 -0.448,1 -1,1 z"
        id="path30" /></g><g
      id="g36"><path
        d="M 9,11 H 3 C 2.448,11 2,10.553 2,10 2,9.447 2.448,9 3,9 h 6 c 0.552,0 1,0.447 1,1 0,0.553 -0.448,1 -1,1 z"
        id="path34" /></g><g
      id="g40"><path
        d="m 45,6 c -1.654,0 -3,-1.346 -3,-3 0,-1.654 1.346,-3 3,-3 1.654,0 3,1.346 3,3 0,1.654 -1.346,3 -3,3 z m 0,-4 c -0.551,0 -1,0.448 -1,1 0,0.552 0.449,1 1,1 0.551,0 1,-0.448 1,-1 0,-0.552 -0.449,-1 -1,-1 z"
        id="path38" /></g><g
      id="g44"><path
        d="m 45,21 c -1.654,0 -3,-1.346 -3,-3 0,-1.654 1.346,-3 3,-3 1.654,0 3,1.346 3,3 0,1.654 -1.346,3 -3,3 z m 0,-4 c -0.551,0 -1,0.448 -1,1 0,0.552 0.449,1 1,1 0.551,0 1,-0.448 1,-1 0,-0.552 -0.449,-1 -1,-1 z"
        id="path42" /></g><g
      id="g48"><path
        d="m 45,11 c -0.552,0 -1,-0.447 -1,-1 V 5 c 0,-0.553 0.448,-1 1,-1 0.552,0 1,0.447 1,1 v 5 c 0,0.553 -0.448,1 -1,1 z"
        id="path46" /></g><g
      id="g52"><path
        d="m 45,36 c -1.654,0 -3,-1.346 -3,-3 0,-1.654 1.346,-3 3,-3 1.654,0 3,1.346 3,3 0,1.654 -1.346,3 -3,3 z m 0,-4 c -0.551,0 -1,0.448 -1,1 0,0.552 0.449,1 1,1 0.551,0 1,-0.448 1,-1 0,-0.552 -0.449,-1 -1,-1 z"
        id="path50" /></g><g
      id="g56"><path
        d="m 45,32 c -0.552,0 -1,-0.447 -1,-1 v -5 c 0,-0.553 0.448,-1 1,-1 0.552,0 1,0.447 1,1 v 5 c 0,0.553 -0.448,1 -1,1 z"
        id="path54" /></g><g
      id="g60"><path
        d="m 43,19 h -4 c -0.552,0 -1,-0.447 -1,-1 0,-0.553 0.448,-1 1,-1 h 4 c 0.552,0 1,0.447 1,1 0,0.553 -0.448,1 -1,1 z"
        id="path58" /></g><g
      id="g64"><path
        d="m 45,27 h -6 c -0.552,0 -1,-0.447 -1,-1 0,-0.553 0.448,-1 1,-1 h 6 c 0.552,0 1,0.447 1,1 0,0.553 -0.448,1 -1,1 z"
        id="path62" /></g><g
      id="g68"><path
        d="m 45,11 h -6 c -0.552,0 -1,-0.447 -1,-1 0,-0.553 0.448,-1 1,-1 h 6 c 0.552,0 1,0.447 1,1 0,0.553 -0.448,1 -1,1 z"
        id="path66" /></g><g
      id="g72"><path
        d="M 29.999,48 H 18 c -0.552,0 -1,-0.447 -1,-1 0,-0.553 0.448,-1 1,-1 h 11.999 c 0.552,0 1,0.447 1,1 0,0.553 -0.448,1 -1,1 z"
        id="path70" /></g><g
      id="g76"><path
        d="M 29,48 H 19 V 34 h 10 z m -8,-2 h 6 V 36 h -6 z"
        id="path74" /></g><g
      id="g80"><path
        d="M 22.405,24.582 21.961,22.9 C 21.703,21.922 21.1,21.1 20.219,20.523 19.868,20.297 19.495,20.132 19.117,20.037 l -1.707,-0.432 8.173,-8.173 0.448,1.673 c 0.103,0.382 0.275,0.768 0.5,1.117 0.572,0.876 1.393,1.479 2.371,1.742 l 1.673,0.448 z m -1.289,-5.854 c 0.064,0.038 0.128,0.077 0.191,0.118 0.818,0.535 1.485,1.236 1.961,2.045 l 3.623,-3.622 C 26.083,16.791 25.384,16.124 24.852,15.311 24.81,15.246 24.769,15.179 24.73,15.114 Z"
        id="path78" /></g><g
      id="g84"><path
        d="m 29.938,18.099 c -0.518,0 -1.039,-0.065 -1.55,-0.201 -1.444,-0.387 -2.698,-1.306 -3.535,-2.587 -0.344,-0.534 -0.596,-1.1 -0.753,-1.688 -0.452,-1.676 -0.165,-3.461 0.788,-4.896 1.32,-1.968 3.578,-2.994 5.893,-2.671 0.704,0.097 1.281,0.576 1.506,1.249 0.224,0.666 0.055,1.389 -0.441,1.884 l -0.478,0.478 0.967,0.968 0.478,-0.479 c 0.501,-0.499 1.232,-0.669 1.905,-0.443 0.653,0.218 1.119,0.771 1.215,1.443 0.286,1.883 -0.349,3.819 -1.699,5.172 v 0 c -1.149,1.148 -2.706,1.771 -4.296,1.771 z m 0.012,-10.1 c -1.351,0 -2.618,0.674 -3.399,1.839 -0.623,0.938 -0.818,2.16 -0.52,3.266 0.103,0.384 0.276,0.77 0.5,1.119 0.572,0.876 1.393,1.479 2.371,1.742 1.396,0.37 2.897,-0.031 3.916,-1.051 0.832,-0.833 1.25,-1.949 1.174,-3.109 l -0.354,0.355 c -0.719,0.717 -1.887,0.718 -2.605,10e-4 L 29.842,10.97 c -0.718,-0.719 -0.718,-1.887 0,-2.605 L 30.2,8.008 C 30.116,8.002 30.033,7.999 29.95,7.999 Z m 3.575,7.622 h 0.01 z m 0.429,-4.173 c 0,10e-4 0,10e-4 0,0.002 0,-10e-4 0,-10e-4 0,-0.002 z"
        id="path82" /></g><g
      id="g88"><path
        d="m 18.062,30.002 c -0.302,0 -0.606,-0.022 -0.912,-0.067 -0.678,-0.104 -1.229,-0.575 -1.443,-1.23 -0.219,-0.671 -0.048,-1.396 0.447,-1.89 l 0.483,-0.482 -0.967,-0.968 -0.477,0.478 c -0.498,0.497 -1.22,0.668 -1.885,0.443 -0.673,-0.226 -1.151,-0.804 -1.248,-1.508 -0.318,-2.316 0.704,-4.573 2.666,-5.891 1.436,-0.952 3.218,-1.236 4.896,-0.785 0.573,0.146 1.145,0.396 1.685,0.744 1.291,0.845 2.207,2.103 2.587,3.545 0.559,2.075 -0.039,4.314 -1.563,5.839 v 0 c -1.149,1.149 -2.669,1.772 -4.269,1.772 z m -0.258,-2.008 c 1.17,0.064 2.283,-0.349 3.113,-1.179 1.02,-1.021 1.42,-2.519 1.045,-3.91 -0.26,-0.982 -0.862,-1.805 -1.744,-2.382 -0.351,-0.226 -0.724,-0.391 -1.102,-0.486 -1.124,-0.305 -2.343,-0.108 -3.281,0.513 -1.23,0.826 -1.913,2.203 -1.825,3.646 l 0.357,-0.357 c 0.695,-0.695 1.911,-0.695 2.605,0 l 1.191,1.191 c 0.347,0.347 0.539,0.81 0.539,1.302 0,0.493 -0.191,0.956 -0.539,1.304 z m 3.82,-0.472 h 0.01 z"
        id="path86" /></g></g><g
    id="g94"></g>
</symbol>

</svg>